Coordinates
version=1
nRows=38
nColumns=38
inDegrees=no

Units are S.I. units (second, meters, Newtons, ...)
If the header above contains a line with 'inDegrees', this indicates whether rotational values are in degrees (yes) or radians (no).

endheader
time	pelvis_tilt	pelvis_list	pelvis_rotation	pelvis_tx	pelvis_ty	pelvis_tz	hip_flexion_r	hip_adduction_r	hip_rotation_r	knee_angle_r	ankle_angle_r	subtalar_angle_r	mtp_angle_r	hip_flexion_l	hip_adduction_l	hip_rotation_l	knee_angle_l	ankle_angle_l	subtalar_angle_l	mtp_angle_l	lumbar_extension	lumbar_bending	lumbar_rotation	arm_flex_r	arm_add_r	arm_rot_r	elbow_flex_r	pro_sup_r	wrist_flex_r	wrist_dev_r	arm_flex_l	arm_add_l	arm_rot_l	elbow_flex_l	pro_sup_l	wrist_flex_l	wrist_dev_l
1.02	1.27432	1.53362	0.456131	0.645182	1.66915	1.014	0.494292	-0.00456221	-0.0353148	0.270415	-0.177099	0	0	-0.0210771	-0.0704316	-0.229243	0.555741	-0.0433887	0	0	-0.141087	0.0584004	0.0231573	-0.282431	-0.280863	0.167308	0.585513	1.06894	0	0	0.597164	-0.541583	1.27837	0.409136	1.01669	0	0
1.03	1.33102	1.53039	0.402078	0.645677	1.68001	1.01305	0.46422	0.0016556	-0.00774272	0.174516	-0.214592	0	0	-0.0351636	-0.0772479	-0.232165	0.553605	-0.0404963	0	0	-0.144158	0.0631914	0.024981	-0.281529	-0.277986	0.163811	0.580814	1.07482	0	0	0.605387	-0.539598	1.28918	0.404375	1.00589	0	0
1.04	1.41271	1.52772	0.324406	0.646075	1.69107	1.0121	0.432169	0.00509841	0.0241262	0.0861269	-0.254848	0	0	-0.0507169	-0.0843219	-0.234727	0.551757	-0.0384748	0	0	-0.148569	0.0681747	0.0248415	-0.280864	-0.275849	0.161586	0.577356	1.07712	0	0	0.610748	-0.538676	1.29426	0.400642	1.0007	0	0
1.05	1.48013	1.52542	0.262265	0.646343	1.70223	1.01104	0.405187	0.00582415	0.050785	0.0171202	-0.288594	0	0	-0.0652033	-0.0909845	-0.235832	0.55116	-0.0376223	0	0	-0.152561	0.0728205	0.0230664	-0.280471	-0.274267	0.161128	0.574287	1.07783	0	0	0.613779	-0.538394	1.29658	0.397491	0.997769	0	0
1.06	1.47283	1.52338	0.274637	0.646544	1.71342	1.00968	0.396751	0.00596018	0.0556991	0	-0.296472	0	0	-0.0749124	-0.0963669	-0.235719	0.552785	-0.0381352	0	0	-0.153183	0.0765461	0.0208219	-0.280213	-0.273028	0.162102	0.570824	1.07809	0	0	0.614036	-0.538812	1.29646	0.395228	0.996656	0	0
1.07	1.34739	1.519	0.406199	0.646525	1.72494	1.00819	0.40138	0.00733012	0.0513504	0	-0.233997	0	0	-0.0765236	-0.101306	-0.22983	0.555522	-0.0339657	0	0	-0.147766	0.0842458	-0.0248615	-0.249928	-0.296873	0.256103	0.564613	1.00273	0	0	0.535459	-0.579273	1.06181	0.443743	1.16285	0	0
1.08	1.51206	1.51892	0.245505	0.64683	1.73603	1.00759	0.389397	0.0117282	0.0480866	0	-0.304811	0	0	-0.0944627	-0.109384	-0.234686	0.558765	-0.0459004	0	0	-0.154519	0.0857875	0.006387	-0.269166	-0.277823	0.196918	0.556268	1.05328	0	0	0.596517	-0.546509	1.26356	0.394713	1.0131	0	0
1.09	1.49236	1.51618	0.270144	0.647107	1.74767	1.00647	0.390458	0.016773	0.0417533	0	-0.298879	0	0	-0.100066	-0.116686	-0.232392	0.565327	-0.0504562	0	0	-0.152377	0.0906468	0.000411881	-0.266519	-0.276653	0.201201	0.54927	1.0511	0	0	0.586427	-0.549254	1.25518	0.393156	1.01568	0	0
1.1	1.47327	1.51402	0.293774	0.647497	1.75957	1.00539	0.395957	0.0223621	0.0304861	0.0223991	-0.291878	0	0	-0.104988	-0.123479	-0.228935	0.572911	-0.0549674	0	0	-0.150064	0.0949843	-0.0048401	-0.265094	-0.275161	0.20371	0.54333	1.04801	0	0	0.574578	-0.552091	1.24653	0.391925	1.0198	0	0
1.11	1.40882	1.51214	0.362835	0.647806	1.77172	1.00407	0.410374	0.0265929	0.00697319	0.0718188	-0.27714	0	0	-0.105724	-0.128823	-0.223414	0.582991	-0.0628386	0	0	-0.143898	0.0985112	-0.0131724	-0.262642	-0.274776	0.212464	0.536031	1.04193	0	0	0.555768	-0.557087	1.22558	0.392915	1.03417	0	0
1.12	1.37339	1.51025	0.403138	0.648044	1.78413	1.00292	0.41882	0.030171	-0.0123308	0.113272	-0.277546	0	0	-0.107279	-0.134664	-0.21709	0.594167	-0.0718345	0	0	-0.139617	0.10302	-0.021228	-0.260891	-0.275415	0.22336	0.529977	1.03581	0	0	0.534363	-0.561359	1.19829	0.394285	1.05595	0	0
1.13	1.41083	1.50793	0.370456	0.648299	1.7966	1.0023	0.417178	0.0343635	-0.026753	0.134742	-0.324614	0	0	-0.11231	-0.142974	-0.211233	0.606551	-0.0842412	0	0	-0.138587	0.108924	-0.0206845	-0.263187	-0.271479	0.219129	0.521455	1.04352	0	0	0.53182	-0.559481	1.25222	0.387802	1.00269	0	0
1.14	1.45627	1.50324	0.329035	0.648457	1.80915	1.00221	0.413876	0.039412	-0.0396168	0.146228	-0.346651	0	0	-0.116184	-0.153156	-0.203855	0.620767	-0.0967852	0	0	-0.139776	0.119383	-0.0254934	-0.261727	-0.272446	0.225802	0.515445	1.04072	0	0	0.511402	-0.559507	1.23882	0.384899	1.01012	0	0
1.15	1.48272	1.49772	0.304398	0.648643	1.82175	1.00241	0.41427	0.0446706	-0.05396	0.163159	-0.354748	0	0	-0.117733	-0.162708	-0.195656	0.637403	-0.110802	0	0	-0.140309	0.130623	-0.0278083	-0.260977	-0.274249	0.231862	0.510588	1.03763	0	0	0.489072	-0.557862	1.224	0.380956	1.01877	0	0
1.16	1.51389	1.49297	0.272028	0.649021	1.83437	1.0029	0.415197	0.0504385	-0.0672549	0.187312	-0.35984	0	0	-0.119677	-0.170316	-0.187073	0.656008	-0.121716	0	0	-0.142575	0.141107	-0.0246299	-0.264203	-0.273282	0.221157	0.509521	1.0485	0	0	0.469177	-0.554456	1.21926	0.376584	1.01993	0	0
1.17	1.49798	1.48905	0.283863	0.649551	1.8471	1.00321	0.425296	0.0542431	-0.0850605	0.228192	-0.370548	0	0	-0.116091	-0.17526	-0.18006	0.679792	-0.140069	0	0	-0.140253	0.149478	-0.0211265	-0.266768	-0.274727	0.221681	0.508297	1.04638	0	0	0.445751	-0.552059	1.21708	0.373182	1.0155	0	0
1.18	1.44707	1.48571	0.328925	0.650131	1.86	1.0034	0.440477	0.0561175	-0.102593	0.275574	-0.351657	0	0	-0.107126	-0.177753	-0.173529	0.708408	-0.160525	0	0	-0.135541	0.156966	-0.0242258	-0.263894	-0.282087	0.246599	0.507009	1.02173	0	0	0.404071	-0.55361	1.15276	0.376645	1.06474	0	0
1.19	1.43378	1.48421	0.335579	0.650905	1.87286	1.00384	0.450933	0.0575759	-0.117099	0.320496	-0.311506	0	0	-0.0994537	-0.179556	-0.169119	0.740814	-0.18558	0	0	-0.132132	0.16176	-0.0147429	-0.269115	-0.281194	0.244559	0.503964	1.01929	0	0	0.388992	-0.550874	1.20065	0.373456	1.01164	0	0
1.2	1.43314	1.4833	0.32915	0.651738	1.88574	1.0046	0.45505	0.0603858	-0.125459	0.354148	-0.297496	0	0	-0.0911595	-0.180358	-0.163588	0.774714	-0.209989	0	0	-0.13244	0.167278	-0.0114359	-0.270324	-0.282504	0.246809	0.50315	1.01672	0	0	0.357957	-0.550456	1.18415	0.375384	1.01677	0	0
1.21	1.43689	1.4828	0.318493	0.652614	1.89853	1.0055	0.456006	0.0633538	-0.133699	0.384086	-0.285086	0	0	-0.0810302	-0.18062	-0.157367	0.810504	-0.236949	0	0	-0.133739	0.172347	-0.00858301	-0.271249	-0.283834	0.249266	0.503019	1.0147	0	0	0.325836	-0.549789	1.16459	0.378135	1.02433	0	0
1.22	1.46783	1.48169	0.281494	0.653502	1.91108	1.00661	0.449452	0.0681336	-0.140958	0.401539	-0.290919	0	0	-0.0707196	-0.182131	-0.149751	0.84866	-0.259041	0	0	-0.137033	0.178222	0.00108657	-0.277367	-0.281477	0.236501	0.504241	1.02315	0	0	0.307398	-0.545454	1.19071	0.376384	0.996071	0	0
1.23	1.44132	1.47903	0.3019	0.654377	1.92368	1.00738	0.447493	0.0723976	-0.150452	0.417426	-0.268425	0	0	-0.0521851	-0.183087	-0.140458	0.889133	-0.289488	0	0	-0.137033	0.184893	-0.0049108	-0.272387	-0.287411	0.257357	0.504598	1.01148	0	0	0.258352	-0.545357	1.10939	0.383948	1.0546	0	0
1.24	1.44916	1.47686	0.288483	0.655302	1.93591	1.00814	0.440269	0.076802	-0.161703	0.428755	-0.244318	0	0	-0.0352696	-0.185263	-0.132596	0.931154	-0.320785	0	0	-0.134434	0.189752	0.0101709	-0.283046	-0.283158	0.241769	0.504851	1.01839	0	0	0.255985	-0.540835	1.2111	0.380459	0.956619	0	0
1.25	1.44719	1.47408	0.286036	0.656094	1.948	1.00895	0.430217	0.0815704	-0.172012	0.43117	-0.235037	0	0	-0.0161989	-0.187523	-0.123075	0.973166	-0.339674	0	0	-0.135115	0.196224	0.0117742	-0.284617	-0.284262	0.241779	0.506464	1.01806	0	0	0.226645	-0.53818	1.20044	0.383988	0.958872	0	0
1.26	1.45262	1.47191	0.276859	0.656773	1.95991	1.00982	0.416927	0.0859639	-0.180395	0.42962	-0.226235	0	0	0.00312121	-0.188811	-0.111749	1.01532	-0.356407	0	0	-0.13687	0.202071	0.0128531	-0.285551	-0.285389	0.241843	0.507716	1.01733	0	0	0.198353	-0.534745	1.19001	0.387041	0.962179	0	0
1.27	1.46619	1.47109	0.259859	0.657388	1.97163	1.01079	0.401343	0.0895993	-0.184939	0.426076	-0.218911	0	0	0.0220349	-0.188415	-0.0996693	1.05671	-0.373769	0	0	-0.140135	0.206277	0.0142706	-0.285919	-0.286364	0.242062	0.5088	1.01634	0	0	0.171774	-0.530547	1.18057	0.388887	0.967162	0	0
1.28	1.48422	1.47128	0.238063	0.657956	1.98308	1.01192	0.38528	0.0927729	-0.185709	0.422732	-0.210245	0	0	0.040998	-0.186759	-0.0886764	1.09632	-0.396229	0	0	-0.144549	0.209179	0.0153846	-0.285091	-0.287613	0.243195	0.509794	1.01459	0	0	0.145417	-0.525058	1.16891	0.388884	0.975414	0	0
1.29	1.50436	1.47241	0.213371	0.65854	1.99432	1.01318	0.369363	0.0960009	-0.182383	0.420047	-0.203655	0	0	0.0599627	-0.184288	-0.0802163	1.13353	-0.415191	0	0	-0.149972	0.210689	0.0172222	-0.283436	-0.288362	0.243668	0.509928	1.01184	0	0	0.120063	-0.518323	1.15603	0.387102	0.984422	0	0
1.3	1.53042	1.47417	0.182367	0.659204	2.00535	1.01451	0.352883	0.0998365	-0.175164	0.417006	-0.191456	0	0	0.0785683	-0.182124	-0.0747813	1.16751	-0.428068	0	0	-0.154258	0.2106	0.0253369	-0.28397	-0.288704	0.247312	0.50831	0.99985	0	0	0.107317	-0.511826	1.18919	0.383581	0.951829	0	0
1.31	1.55214	1.47624	0.155681	0.659837	2.01621	1.01586	0.336789	0.103594	-0.166261	0.41293	-0.184338	0	0	0.0975763	-0.179679	-0.0707169	1.19814	-0.425418	0	0	-0.160025	0.210082	0.0289909	-0.281213	-0.289233	0.249811	0.506529	0.996661	0	0	0.086046	-0.503811	1.18284	0.379179	0.953349	0	0
1.32	1.57913	1.47822	0.124295	0.6604	2.02695	1.01722	0.319518	0.107295	-0.157841	0.406971	-0.178365	0	0	0.115866	-0.17763	-0.0676946	1.2255	-0.407032	0	0	-0.166047	0.209609	0.0319425	-0.278616	-0.289376	0.250484	0.505013	0.992363	0	0	0.0653446	-0.494997	1.1751	0.373882	0.95457	0	0
1.33	1.6124	1.47977	0.0873454	0.660933	2.03759	1.01857	0.300023	0.111131	-0.150547	0.397468	-0.173493	0	0	0.133677	-0.176768	-0.066225	1.24992	-0.380124	0	0	-0.172236	0.209325	0.0342056	-0.27575	-0.28934	0.251345	0.502997	0.989071	0	0	0.0452181	-0.485866	1.16625	0.368182	0.956612	0	0
1.34	1.64095	1.48039	0.0540833	0.661271	2.04826	1.01959	0.278541	0.115201	-0.143875	0.383854	-0.168837	0	0	0.151898	-0.176345	-0.0670668	1.27088	-0.349563	0	0	-0.179122	0.207037	0.0361999	-0.272372	-0.289625	0.25316	0.500565	0.986659	0	0	0.0246227	-0.475764	1.15391	0.361903	0.961255	0	0
1.35	1.70606	1.4823	-0.0139346	0.661772	2.05854	1.02131	0.251657	0.118244	-0.135475	0.363917	-0.172195	0	0	0.166552	-0.176123	-0.0699291	1.28934	-0.311277	0	0	-0.18411	0.208214	0.0493451	-0.276243	-0.288588	0.250007	0.499412	0.977696	0	0	0.0240558	-0.469566	1.21705	0.358248	0.90041	0	0
1.36	1.74453	1.48337	-0.0559358	0.662129	2.06876	1.02261	0.227281	0.121115	-0.127782	0.344217	-0.172896	0	0	0.184905	-0.175768	-0.0735743	1.30418	-0.282276	0	0	-0.19038	0.207456	0.053643	-0.273817	-0.288722	0.251394	0.496927	0.975032	0	0	0.00890793	-0.460093	1.21585	0.352819	0.896455	0	0
1.37	1.7815	1.4843	-0.0958639	0.662495	2.07877	1.02385	0.202676	0.123909	-0.119781	0.322726	-0.175278	0	0	0.204549	-0.175712	-0.0777014	1.3159	-0.257277	0	0	-0.196653	0.20662	0.0577179	-0.271647	-0.288807	0.25207	0.495325	0.972277	0	0	-0.00493762	-0.450801	1.21426	0.347774	0.894399	0	0
1.38	1.80963	1.4856	-0.128058	0.662808	2.08873	1.02498	0.179314	0.12616	-0.111052	0.301636	-0.178048	0	0	0.224963	-0.175808	-0.0839557	1.32381	-0.237032	0	0	-0.201988	0.205223	0.0625723	-0.270586	-0.289146	0.251538	0.495295	0.969396	0	0	-0.0185596	-0.441226	1.21102	0.342921	0.895681	0	0
1.39	1.84389	1.48678	-0.165447	0.663149	2.09848	1.02604	0.15582	0.128312	-0.103325	0.280689	-0.180095	0	0	0.24526	-0.176651	-0.0890808	1.32817	-0.221113	0	0	-0.208171	0.203588	0.0670032	-0.26978	-0.289541	0.250772	0.496707	0.967052	0	0	-0.0307474	-0.432548	1.20646	0.339231	0.901207	0	0
